<?xml version="1.0" standalone="no"?><!DOCTYPE svg PUBLIC "-//W3C//DTD SVG 1.1//EN" "http://www.w3.org/Graphics/SVG/1.1/DTD/svg11.dtd"><svg t="1597037389420" class="icon" viewBox="0 0 1024 1024" version="1.1" xmlns="http://www.w3.org/2000/svg" p-id="2963" width="32" height="32" xmlns:xlink="http://www.w3.org/1999/xlink"><defs><style type="text/css"></style></defs><path d="M889.6 667.2a16 16 0 0 0-9.6-9.6l-68.8-64-12.8 14.4 52.8 48H648l-80-94.4a16 16 0 1 0-24 20.8l84.8 99.2a16 16 0 0 0 12.8 4.8h209.6l-52.8 48 12.8 14.4 68.8-64a16 16 0 0 0 9.6-9.6l6.4-3.2z" fill="#0084FF" p-id="2964"></path><path d="M379.2 688a16 16 0 0 0 12.8-6.4L649.6 368h201.6l-52.8 48 12.8 14.4 68.8-64a16 16 0 0 0 9.6-9.6l6.4-4.8-6.4-4.8a16 16 0 0 0-9.6-9.6l-68.8-64-12.8 14.4 52.8 48H641.6a16 16 0 0 0-12.8 6.4L372.8 656h-134.4a56 56 0 1 0-4.8 32z m-195.2 0a24 24 0 1 1 24-24 24 24 0 0 1-24 24z" fill="#0084FF" p-id="2965"></path><path d="M184 416a56 56 0 0 0 54.4-48h136l65.6 92.8a16 16 0 0 0 12.8 6.4l11.2-3.2a16 16 0 0 0 3.2-22.4l-70.4-99.2a16 16 0 0 0-12.8-6.4h-150.4a56 56 0 1 0-49.6 80z m0-80a24 24 0 1 1-24 24 24 24 0 0 1 24-24zM728 729.6a297.6 297.6 0 0 1-433.6 0 16 16 0 0 0-22.4 20.8 329.6 329.6 0 0 0 480 0 16 16 0 1 0-24-22.4zM281.6 302.4a16 16 0 0 0 11.2-4.8 297.6 297.6 0 0 1 438.4 0 16 16 0 1 0 24-20.8 329.6 329.6 0 0 0-486.4 0 16 16 0 0 0 11.2 27.2z" fill="#0084FF" p-id="2966"></path></svg>