<?xml version="1.0" standalone="no"?><!DOCTYPE svg PUBLIC "-//W3C//DTD SVG 1.1//EN" "http://www.w3.org/Graphics/SVG/1.1/DTD/svg11.dtd"><svg t="1597055450366" class="icon" viewBox="0 0 1024 1024" version="1.1" xmlns="http://www.w3.org/2000/svg" p-id="2198" xmlns:xlink="http://www.w3.org/1999/xlink" width="32" height="32"><defs><style type="text/css"></style></defs><path d="M981.76 192H353.28a33.28 33.28 0 1 1 0-64h628.48a33.28 33.28 0 0 1 0 64zM981.76 549.76H353.28A33.28 33.28 0 0 1 320 516.48a33.92 33.92 0 0 1 33.92-33.92h628.48a33.28 33.28 0 0 1 33.28 33.92 33.28 33.28 0 0 1-33.92 33.28zM981.76 908.16H353.28a33.92 33.92 0 0 1-33.28-33.92 33.28 33.28 0 0 1 33.92-33.28h628.48a33.28 33.28 0 0 1 33.28 33.28 33.28 33.28 0 0 1-33.92 33.92zM128 248.32a28.8 28.8 0 0 1-23.68-12.16L14.72 115.2a29.44 29.44 0 0 1-3.2-31.36 30.72 30.72 0 0 1 26.88-16h181.12a30.08 30.08 0 0 1 26.24 16 30.72 30.72 0 0 1 0 31.36L152.32 236.16a28.8 28.8 0 0 1-24.32 12.16zM97.28 128l30.72 41.6 32-41.6zM128 606.72a28.8 28.8 0 0 1-23.68-12.16l-89.6-121.6a28.16 28.16 0 0 1-3.2-30.72 30.72 30.72 0 0 1 26.88-16h181.12a30.08 30.08 0 0 1 26.24 16 29.44 29.44 0 0 1 0 30.72l-93.44 121.6a28.8 28.8 0 0 1-24.32 12.16z m-31.36-121.6l31.36 42.24 31.36-42.24zM128 964.48a30.08 30.08 0 0 1-23.68-11.52L14.72 832a28.16 28.16 0 0 1-3.2-30.72 30.08 30.08 0 0 1 26.88-16.64h181.12a30.08 30.08 0 0 1 23.68 47.36l-90.88 121.6a30.08 30.08 0 0 1-24.32 10.88z m-31.36-120.96l31.36 42.24 31.36-42.24z" fill="#ffffff" p-id="2199"></path></svg>